<?xml version="1.0" encoding="UTF-8" standalone="no"?>
<svg
   xmlns:dc="http://purl.org/dc/elements/1.1/"
   xmlns:cc="http://creativecommons.org/ns#"
   xmlns:rdf="http://www.w3.org/1999/02/22-rdf-syntax-ns#"
   xmlns:svg="http://www.w3.org/2000/svg"
   xmlns="http://www.w3.org/2000/svg"
   xmlns:sodipodi="http://sodipodi.sourceforge.net/DTD/sodipodi-0.dtd"
   xmlns:inkscape="http://www.inkscape.org/namespaces/inkscape"
   width="500"
   height="600"
   version="1.1"
   viewBox="0 0 132.3 158.8"
   id="svg819"
   sodipodi:docname="cyu-mono.svg"
   inkscape:version="0.92.4 (5da689c313, 2019-01-14)">
  <metadata
     id="metadata825">
    <rdf:RDF>
      <cc:Work
         rdf:about="">
        <dc:format>image/svg+xml</dc:format>
        <dc:type
           rdf:resource="http://purl.org/dc/dcmitype/StillImage" />
      </cc:Work>
    </rdf:RDF>
  </metadata>
  <defs
     id="defs823" />
  <sodipodi:namedview
     pagecolor="#ffffff"
     bordercolor="#666666"
     borderopacity="1"
     objecttolerance="10"
     gridtolerance="10"
     guidetolerance="10"
     inkscape:pageopacity="0"
     inkscape:pageshadow="2"
     inkscape:window-width="1920"
     inkscape:window-height="1017"
     id="namedview821"
     showgrid="false"
     inkscape:zoom="0.51029539"
     inkscape:cx="27.190767"
     inkscape:cy="345.73218"
     inkscape:window-x="-8"
     inkscape:window-y="-8"
     inkscape:window-maximized="1"
     inkscape:current-layer="svg819" />
  <g
     transform="translate(0 -138.2)"
     id="g817">
    <path
       d="m62.88 282.9c-6.599-0.7713-11.42-2.202-17.28-5.128-9.515-4.75-18.88-12.66-28.15-23.76-3.468-4.157-8.835-11.57-11.09-15.31-7.392-12.28-7.554-26.37-0.451-39.31 2.434-4.436 5.271-8.176 9.162-12.08 2.777-2.784 5.092-4.778 8.393-7.233 1.688-1.255 5.581-3.933 6.514-4.481 0.1343-0.0789-0.2221 0.3657-0.7921 0.988-4.187 4.572-7.896 11.23-9.851 17.68-3.4 11.22-2.473 24.34 2.515 35.61 2.682 6.063 6.308 11.37 11.13 16.29 9.09 9.28 20.44 15.07 33.31 16.98 2.875 0.427 8.929 0.5906 11.83 0.3196 7.177-0.6714 14.61-2.857 21.39-6.293 1.478-0.7483 3.31-1.739 4.071-2.201 0.7613-0.4621 1.897-1.135 2.524-1.495 3.486-2.001 6.665-4.401 9.239-6.977 2.057-2.057 2.053-2.069 0.3284 0.9956-5.211 9.258-11.51 17.29-17.64 22.49-7.989 6.777-17.11 11.21-25.96 12.61-1.553 0.2456-7.904 0.4551-9.2 0.3036zm4.804-21.8c-12.12-1.393-22.81-6.466-31.32-14.87-1.764-1.74-4.624-4.944-4.513-5.055 0.03194-0.032 0.6532 0.2852 1.381 0.7048 2.556 1.474 5.813 2.637 8.947 3.195 1.517 0.2698 2.839 0.3529 6.694 0.4208l4.804 0.0846 9.458-12.82-9.207-0.0895c-8.87-0.0862-9.25-0.1025-10.38-0.4459-2.653-0.8072-4.96-2.201-6.938-4.191-5.954-5.993-6.049-14.31-0.2318-20.38 2.173-2.265 4.743-3.795 7.475-4.45 1.27-0.3044 1.927-0.3248 10.51-0.3259 7.209-1e-3 9.16-0.0444 9.16-0.2043 0-0.1117-0.2156-0.8628-0.4791-1.669-0.2635-0.8063-1.186-3.653-2.05-6.327l-1.571-4.861-7.761 0.0809c-6.995 0.0729-7.944 0.1149-9.621 0.4256-10 1.853-18.12 8.83-21.44 18.42l-0.5348 1.547-0.01238-2.936c-0.03988-9.487 2.914-18.21 9.044-26.7 1.987-2.752 2.894-3.733 4.733-5.119 6.496-4.896 18.48-7.683 30.22-7.028 13.73 0.765 25.41 5.355 35.18 13.82 1.798 1.559 5.187 5.039 6.361 6.533l0.7792 0.9918-1.406 0.012-8.142 11.05c-4.478 6.075-8.157 11.03-8.176 11.02-0.01898-0.0147-1.616-4.927-3.549-10.92-1.933-5.989-3.552-10.95-3.598-11.02-0.09315-0.1507-13.42-0.1906-13.42-0.0401 0 0.0523 2.272 7.095 5.048 15.65l5.048 15.55v1.495c0 1.693-0.2823 2.964-0.9779 4.401-0.2632 0.5439-3.375 4.898-6.915 9.675-3.54 4.777-6.437 8.716-6.437 8.753 0 0.0367 3.511 0.0668 7.801 0.0668h7.801l13.03-17.63c7.165-9.695 14.68-19.78 16.71-22.41l3.679-4.781 0.4243 0.9546c2.452 5.517 4.043 11.55 4.807 18.22 0.2675 2.337 0.2668 8.933-1e-3 11.32-0.4024 3.579-1.182 7.332-2.155 10.37-0.4635 1.447-0.5172 1.53-1.737 2.674-2.009 1.885-5.272 4.42-8.26 6.418-8.545 5.712-16.79 8.928-26.31 10.26-2.601 0.3643-9.404 0.4575-11.96 0.1638zm50.63-19.22c1.253-3.564 1.994-7 2.386-11.06 0.2453-2.539 0.0981-9.97-0.2454-12.39-0.8591-6.045-2.396-11.63-4.757-17.3-2.665-6.4-4.697-9.474-10.52-15.91-7.182-7.939-15.3-13.3-25.02-16.53-6.728-2.233-12.45-3.046-20.28-2.882-6.97 0.1455-11.91 0.9851-17.92 3.045-2.932 1.005-5.119 2.071-8.129 3.965l-2.248 1.415 0.6829-0.8156c1.037-1.238 3.889-3.887 5.751-5.341 5.523-4.312 13.85-9.051 20.47-11.65 5.533-2.173 9.271-3.143 14.98-3.887 2.315-0.3016 9.215-0.2518 11.76 0.0848 8.434 1.116 16.2 4.047 23.47 8.857 5.206 3.445 10.45 8.742 14.14 14.29 1.763 2.65 4.267 7.523 5.272 10.26 2.395 6.519 3.486 12.78 3.491 20 6e-3 10.7-2.894 20.72-8.651 29.89-1.487 2.369-4.92 6.793-4.63 5.966z"
       id="path815"
       style="stroke:#ffffff;stroke-opacity:1" />
  </g>
</svg>
