<?xml version="1.0" encoding="UTF-8" standalone="no"?>
<svg
   xmlns:dc="http://purl.org/dc/elements/1.1/"
   xmlns:cc="http://creativecommons.org/ns#"
   xmlns:rdf="http://www.w3.org/1999/02/22-rdf-syntax-ns#"
   xmlns:svg="http://www.w3.org/2000/svg"
   xmlns="http://www.w3.org/2000/svg"
   xmlns:sodipodi="http://sodipodi.sourceforge.net/DTD/sodipodi-0.dtd"
   xmlns:inkscape="http://www.inkscape.org/namespaces/inkscape"
   width="500"
   height="600"
   version="1.1"
   viewBox="0 0 132.3 158.8"
   id="svg873"
   sodipodi:docname="mcg-mono.svg"
   inkscape:version="0.92.4 (5da689c313, 2019-01-14)">
  <metadata
     id="metadata879">
    <rdf:RDF>
      <cc:Work
         rdf:about="">
        <dc:format>image/svg+xml</dc:format>
        <dc:type
           rdf:resource="http://purl.org/dc/dcmitype/StillImage" />
      </cc:Work>
    </rdf:RDF>
  </metadata>
  <defs
     id="defs877" />
  <sodipodi:namedview
     pagecolor="#ffffff"
     bordercolor="#666666"
     borderopacity="1"
     objecttolerance="10"
     gridtolerance="10"
     guidetolerance="10"
     inkscape:pageopacity="0"
     inkscape:pageshadow="2"
     inkscape:window-width="1920"
     inkscape:window-height="1017"
     id="namedview875"
     showgrid="false"
     inkscape:zoom="1.1125147"
     inkscape:cx="430.15459"
     inkscape:cy="337.56028"
     inkscape:window-x="-8"
     inkscape:window-y="-8"
     inkscape:window-maximized="1"
     inkscape:current-layer="svg873" />
  <g
     transform="matrix(1.0137329,0,0,1.0137329,-0.90169494,-141.17693)"
     id="g871"
     style="stroke-width:0.98645312">
    <g
       transform="translate(-6.756,-0.1862)"
       id="g869"
       style="clip-rule:evenodd;fill-rule:evenodd;stroke-width:0.98645312">
      <path
         d="m 14.07,211.5 c -5.612,-19.99 -2.331,-38.48 -2.331,-60.84 20,-9.943 39.81,-10.84 61.28,-10.84 18.56,0 44.88,2.395 60.73,10.81 1.626,21.08 2.56,39.64 -2.855,63.6 -5.416,23.96 -21.17,57.05 -57.09,81.5 -39.2,-25.69 -52.02,-56.76 -59.73,-84.22"
         id="path827"
         inkscape:connector-curvature="0"
         style="stroke-width:0.2610155" />
      <g
         id="g859"
         style="fill:#ffffff;stroke-width:0.98645312">
        <g
           id="g845"
           style="stroke-width:0.2610155">
          <path
             d="m 32.8,182.3 -19.32,21 c 4.331,20.13 16.36,62.33 60.17,90.8 43.42,-29.88 55.06,-70.83 57.68,-91.26 L 112.56,182.25 91.77,203.32 72.62,182.43 53.54,203.05 32.8,182.29"
             id="path829"
             inkscape:connector-curvature="0"
             style="stroke-width:0.2610155" />
          <path
             d="m 32.15,163.6 2.377,4.017 h -4.509 l 2.131,-4.017 m -5.41,2.379 -1.476,2.13 3.361,-0.2471 z m 10.9,0 1.64,2.13 -3.278,-0.4922 z m 4.017,-5.084 c -0.2451,0 -0.7384,-0.1625 0,-0.409 0.575,0 1.393,0 2.377,1.476 0.4922,-0.2471 1.639,-1.968 2.869,-1.476 -0.1643,1.804 -3.853,8.606 -4.344,9.261 -1.641,-0.984 -11.31,-1.476 -10.41,-1.476 0.7374,0 -9.099,0.2466 -10.49,1.476 -0.4091,-0.984 -4.262,-7.458 -4.262,-9.506 1.148,-0.4933 2.458,1.148 2.867,1.474 0.9855,-1.474 1.887,-1.474 2.215,-1.474 0.9013,0.2452 0.4091,0.4923 0.1625,0.6542 -4.754,3.936 2.133,8.197 3.525,3.936 6.23,0.573 4.591,-4.345 3.116,-5.084 -1.148,-0.3268 -0.4111,-0.4081 0,-0.4081 0.4918,-0.2466 1.148,-0.2466 1.148,0.0812 0,-2.54 0.3279,-4.426 1.721,-5.163 1.393,0.9013 1.721,2.624 1.393,5.163 0.3279,-0.3278 0.9835,-0.0812 1.476,-0.0812 0.2451,0.0812 1.229,0.0812 0.2451,0.6547 -1.721,0.4918 -3.115,5.655 2.869,4.837 1.393,4.261 8.607,-0.573 3.525,-3.936 z"
             id="path831"
             inkscape:connector-curvature="0"
             style="stroke-width:0.2610155" />
          <path
             d="m 25.21,171.2 c 0.4799,0 0.9598,0.3204 0.9598,1.123 0,0.6423 -0.4799,1.122 -0.9598,1.122 -0.6438,0 -1.124,-0.4799 -1.124,-1.122 0,-0.8023 0.4799,-1.123 1.124,-1.123 m 3.686,-0.8008 c 0.6408,0 1.283,0.4799 1.283,1.121 0,0.8023 -0.6423,1.123 -1.283,1.123 -0.4814,0 -1.122,-0.3204 -1.122,-1.123 0,-0.6403 0.6408,-1.121 1.122,-1.121 z m 3.848,-0.3199 c 0.4799,0 1.121,0.6408 1.121,1.282 0,0.4799 -0.6408,1.121 -1.121,1.121 -0.6423,0 -1.124,-0.6408 -1.124,-1.121 5.06e-4,-0.6408 0.4819,-1.282 1.124,-1.282 z m 3.366,0.3199 c 0.6408,0 1.124,0.4799 1.124,1.121 0,0.6411 -0.4829,1.123 -1.124,1.123 -0.6408,0 -1.121,-0.4814 -1.121,-1.123 -4.87e-4,-0.6403 0.4799,-1.121 1.121,-1.121 z m 3.688,0.8008 c 0.6408,0 1.121,0.4814 1.121,1.123 0,0.6423 -0.4799,1.122 -1.121,1.122 -0.6423,0 -1.124,-0.4799 -1.124,-1.122 0,-0.6413 0.4814,-1.123 1.124,-1.123 z m -15.55,3.367 c -0.6408,-1.122 -1.443,-3.047 -1.925,-3.847 1.765,-1.124 8.017,-1.283 10.1,-1.445 3.527,0 8.175,0.6423 9.779,1.445 0,-0.3204 -0.9627,3.045 -1.443,4.006 -2.565,-0.9612 -6.254,-1.121 -8.497,-1.121 -2.727,-0.1615 -5.933,0.1589 -8.016,0.9612 z"
             id="path833"
             inkscape:connector-curvature="0"
             style="stroke-width:0.2610155" />
          <path
             d="m 32.52,174.5 c 4.489,0 8.017,0.4814 8.017,1.122 0,0.4799 -3.528,0.8003 -8.017,0.8003 -4.327,0 -8.016,-0.3204 -8.016,-0.8003 4.87e-4,-0.6408 3.689,-1.122 8.016,-1.122"
             id="path835"
             inkscape:connector-curvature="0"
             style="stroke-width:0.2610155" />
          <path
             d="m 106.8,166 -1.475,2.13 3.687,-0.2471 -2.213,-1.883 m 5.575,-2.379 2.296,4.017 h -4.263 z m 5.655,2.379 1.639,2.13 -3.278,-0.4922 z m 4.017,-5.084 c -0.4922,0 -0.984,-0.1625 0,-0.409 0.4903,0 1.474,0 2.132,1.476 0.4903,-0.2471 1.885,-1.968 3.114,-1.476 -0.2466,1.804 -3.772,8.606 -4.344,9.261 -1.641,-0.984 -11.39,-1.476 -10.57,-1.476 0.9008,0 -8.854,0.2466 -10.33,1.476 -0.4105,-0.984 -4.262,-7.458 -4.509,-9.506 1.476,-0.4933 2.624,1.148 3.114,1.474 0.984,-1.474 1.887,-1.474 2.13,-1.474 0.7389,0.2452 0.4937,0.4923 0.2466,0.6542 -5.001,3.936 2.13,8.197 3.363,3.936 6.311,0.573 4.67,-4.345 3.113,-5.084 -1.063,-0.3268 -0.2452,-0.4081 0.0827,-0.4081 0.3278,-0.2466 1.312,-0.2466 1.312,0.0812 0,-2.541 0,-4.426 1.476,-5.163 1.393,0.9013 1.802,2.622 1.638,5.163 0.164,-0.3278 0.9013,-0.0812 1.393,-0.0812 0.1655,0.0812 0.9835,0.0812 0,0.6547 -1.639,0.4918 -2.869,5.655 3.115,4.837 1.147,4.261 8.524,-0.573 3.526,-3.936 z"
             id="path837"
             inkscape:connector-curvature="0"
             style="stroke-width:0.2610155" />
          <path
             d="m 105.5,171.2 c 0.4834,0 0.9627,0.3204 0.9627,1.123 0,0.6423 -0.4799,1.122 -0.9627,1.122 -0.6408,0 -1.121,-0.4799 -1.121,-1.122 4.9e-4,-0.8023 0.4804,-1.123 1.121,-1.123 m 3.689,-0.8008 c 0.6408,0 1.282,0.4799 1.282,1.121 0,0.8023 -0.6408,1.123 -1.282,1.123 -0.4819,0 -1.124,-0.3204 -1.124,-1.123 0,-0.6403 0.6423,-1.121 1.124,-1.121 z m 3.845,-0.3199 c 0.4829,0 1.124,0.6408 1.124,1.282 0,0.4799 -0.6408,1.121 -1.124,1.121 -0.6408,0 -1.121,-0.6408 -1.121,-1.121 4.8e-4,-0.6408 0.4804,-1.282 1.121,-1.282 z m 3.369,0.3199 c 0.6408,0 1.121,0.4799 1.121,1.121 0,0.6411 -0.4799,1.123 -1.121,1.123 -0.6408,0 -1.124,-0.4814 -1.124,-1.123 4.8e-4,-0.6403 0.4833,-1.121 1.124,-1.121 z m 3.687,0.8008 c 0.6408,0 1.123,0.4814 1.123,1.123 0,0.6423 -0.4819,1.122 -1.123,1.122 -0.6423,0 -1.122,-0.4799 -1.122,-1.122 4.9e-4,-0.6413 0.4799,-1.123 1.122,-1.123 z m -15.55,3.367 c -0.6408,-1.122 -1.443,-3.047 -1.924,-3.847 1.765,-1.124 8.016,-1.283 10.1,-1.445 3.528,0 8.178,0.6423 9.782,1.445 0,-0.3204 -0.9627,3.045 -1.444,4.006 -2.565,-0.9612 -6.252,-1.121 -8.497,-1.121 -2.724,-0.1615 -5.93,0.1589 -8.016,0.9612 z"
             id="path839"
             inkscape:connector-curvature="0"
             style="stroke-width:0.2610155" />
          <path
             d="m 112.9,174.5 c 4.488,0 8.016,0.4814 8.016,1.122 0,0.4814 -3.528,0.8018 -8.016,0.8018 -4.33,0 -8.017,-0.3204 -8.017,-0.8018 0,-0.6408 3.687,-1.122 8.017,-1.122"
             id="path841"
             inkscape:connector-curvature="0"
             style="stroke-width:0.2610155" />
          <path
             d="m 63.15,154.9 h 0.6557 v -3.278 H 63.15 Z m 3.689,-1.065 -1.31,-2.294 h -0.7384 v 3.278 h 0.6542 v -2.296 l 1.313,2.296 h 0.7359 v -3.278 H 66.839 Z m -6.394,8.113 h 1.474 c 1.148,0 1.395,-1.064 1.395,-1.721 0,-0.6547 -0.2466,-1.639 -1.31,-1.639 h -1.558 v 3.36 z m 0.7374,-2.785 h 0.6557 c 0.3279,0 0.8201,0.0812 0.8201,1.064 0,0.5745 -0.2451,1.148 -0.8201,1.148 h -0.6557 z m 2.541,0.7354 c 0,1.64 1.148,1.804 1.64,1.804 0.4091,0 1.638,-0.164 1.638,-1.804 0,-1.556 -1.229,-1.721 -1.638,-1.721 -0.4923,0 -1.64,0.1654 -1.64,1.721 z m 0.7384,0 c 0,-0.9008 0.4923,-1.146 0.9013,-1.146 0.3278,0 0.9008,0.2456 0.9008,1.146 0,0.9855 -0.573,1.229 -0.9008,1.229 -0.4091,0 -0.9013,-0.2436 -0.9013,-1.229 z m 6.311,-1.965 h -1.065 l -0.573,2.622 -0.575,-2.622 h -1.066 v 3.36 h 0.6557 v -2.786 l 0.6572,2.786 h 0.6547 l 0.6557,-2.786 v 2.786 h 0.6557 z m -8.688,11.14 h 0.6562 v -3.36 h -0.6562 z m 3.525,-1.31 -1.313,-2.377 h -0.8181 v 3.441 h 0.7369 v -2.458 l 1.313,2.458 h 0.7354 v -3.441 h -0.6542 z m 1.392,-0.8196 c 0,1.64 1.148,1.803 1.64,1.803 0.4105,0 1.557,-0.1625 1.557,-1.803 0,-1.557 -1.146,-1.722 -1.557,-1.722 -0.4923,0 -1.64,0.1649 -1.64,1.722 z m 0.6577,0 c 0,-0.9008 0.573,-1.148 0.982,-1.148 0.3279,0 0.9028,0.2471 0.9028,1.148 0,0.9825 -0.575,1.229 -0.9028,1.229 -0.409,0 -0.982,-0.2471 -0.982,-1.229 z m -8.279,-18.61 c 0,0 2.867,1.148 5.41,0.2466 2.95,-1.395 5.493,-1.968 7.623,-0.984 v 25.16 c -1.804,-0.6557 -3.772,-0.4106 -6.641,0.2456 -2.54,0.7369 -4.262,0.7369 -6.392,0.3279 v -25 z"
             id="path843"
             inkscape:connector-curvature="0"
             style="stroke-width:0.2610155" />
        </g>
        <polyline
           transform="matrix(0.4952,0,0,0.4952,6.097,139.9)"
           points="105.5 17.68 101.2 21.48 101.2 72.46 105.5 67.99 105.5 17.68"
           id="polyline847"
           style="stroke-width:0.52706194" />
        <path
           d="m 56.94,176.2 2.377,-1.887 c 1.721,0.4938 5.41,-0.2437 7.131,-0.4903 2.869,-0.4105 4.1,-0.984 6.149,0 -1.148,0.4903 -1.887,1.476 -1.887,2.377 H 56.94"
           id="path849"
           inkscape:connector-curvature="0"
           style="stroke-width:0.2610155" />
        <path
           d="m 88.99,176.2 -2.296,-1.887 c -1.967,0.4938 -5.327,-0.2437 -7.131,-0.4903 -3.115,-0.4105 -4.098,-0.984 -5.901,0 0.9013,0.4903 1.558,1.476 1.393,2.377 h 13.93"
           id="path851"
           inkscape:connector-curvature="0"
           style="stroke-width:0.2610155" />
        <polyline
           transform="matrix(0.4952,0,0,0.4952,6.097,139.9)"
           points="164.1 17.18 168.5 21.48 168.5 71.96 164.1 67.66 164.1 17.18"
           id="polyline853"
           style="stroke-width:0.52706194" />
        <path
           d="m 84.01,154.5 -1.311,-2.377 h -0.7374 v 3.359 h 0.6562 v -2.375 l 1.393,2.375 h 0.7369 v -3.359 h -0.7369 v 2.377 m -5.083,-0.7384 c 0,-0.9013 0.4918,-1.148 0.9008,-1.148 0.3298,0 0.9013,0.2466 0.9013,1.148 0,0.9855 -0.5715,1.229 -0.9013,1.229 -0.4086,-4.8e-4 -0.9008,-0.2442 -0.9008,-1.229 z m -0.7369,0 c 0,1.64 1.147,1.804 1.638,1.804 0.4111,0 1.64,-0.164 1.64,-1.804 0,-1.557 -1.229,-1.721 -1.64,-1.721 -0.4903,-4.9e-4 -1.638,0.1634 -1.638,1.721 z m -0.575,-0.9826 c -0.08124,-0.4918 -0.4918,-1.148 -1.474,-1.148 -0.9028,0 -1.558,0.5735 -1.558,1.721 0,1.229 0.6542,1.804 1.558,1.804 0.8196,0 1.31,-0.4932 1.474,-1.231 h -0.7384 c -0.08124,0.411 -0.3279,0.6562 -0.7354,0.6562 -0.6557,0 -0.8216,-0.5735 -0.8216,-1.229 0,-0.9013 0.4937,-1.148 0.8216,-1.148 0.573,0 0.6542,0.409 0.7354,0.5745 z m 3.115,9.425 h 0.7384 v -3.361 h -0.7384 z m -2.54,-1.476 h 1.474 v -0.6542 h -1.474 v -0.7389 h 1.721 v -0.575 h -2.46 v 3.361 h 0.7389 z m 2.622,6.803 c 0,-0.9013 0.4918,-1.148 0.9023,-1.148 0.3279,0 0.9013,0.2466 0.9013,1.148 0,0.9825 -0.5735,1.229 -0.9013,1.229 -0.4105,0 -0.9023,-0.2466 -0.9023,-1.229 z m -0.7369,0 c 0,1.638 1.147,1.802 1.64,1.802 0.409,0 1.639,-0.164 1.639,-1.802 0,-1.558 -1.229,-1.721 -1.639,-1.721 -0.4923,5e-4 -1.64,0.163 -1.64,1.721 z m -3.033,-1.558 h 0.6557 c 0.3268,0 0.7374,0.0827 0.7374,1.067 0,0.5735 -0.164,1.146 -0.7374,1.146 H 77.043 Z m -0.7374,2.788 h 1.476 c 1.146,0 1.392,-1.067 1.392,-1.804 0,-0.6542 -0.2451,-1.556 -1.392,-1.556 h -1.476 z m 10.16,-20.33 c 0,0 -2.87,1.148 -5.41,0.2466 -3.115,-1.395 -5.574,-1.968 -7.377,-0.984 v 25.16 c 1.557,-0.6557 3.442,-0.4106 6.311,0.2456 2.705,0.7369 4.262,0.7369 6.477,0.3279 z"
           id="path855"
           inkscape:connector-curvature="0"
           style="stroke-width:0.2610155" />
        <path
           d="m 73.09,174.3 c -0.9008,0.9855 -1.392,0.9855 -1.146,1.887 h 2.047 c 0.2466,-0.9013 0,-1.394 -0.9013,-1.887"
           id="path857"
           inkscape:connector-curvature="0"
           style="stroke-width:0.2610155" />
      </g>
      <g
         id="g867"
         style="stroke-width:0.2610155">
        <path
           d="m 34.88,211.7 c 0.3204,0 0.6408,0.3204 0.6408,0.6408 0,0.3204 -0.3204,0.6408 -0.6408,0.6408 -0.3204,0 -0.6408,-0.3204 -0.6408,-0.6408 0,-0.3204 0.3204,-0.6408 0.6408,-0.6408 m -4.649,9.296 c 0.3204,-0.6408 0.9612,-2.565 1.282,-3.205 -0.3204,-0.6408 -0.9613,-1.285 -1.602,-1.285 0.3204,-0.6393 1.441,-1.601 1.282,-2.082 -0.3204,-0.6408 -0.8018,-0.4799 -1.924,-1.123 0.3219,-0.8018 1.283,-1.282 1.764,-1.282 0.6423,-0.161 0.6423,-1.123 1.765,-1.604 1.121,-0.6408 2.245,-0.6408 3.527,-0.6408 1.924,0.1595 6.734,1.443 5.452,7.375 2.886,5.931 13.14,-2.085 16.67,-2.085 -0.6423,1.441 -1.443,2.726 -2.244,4.006 0.9612,0.6408 2.244,0 3.367,0 -1.123,3.206 -3.047,4.65 -4.651,5.932 1.604,5.29 7.695,3.206 13.15,2.565 -0.6423,1.762 -2.887,2.083 -3.848,3.366 1.765,1.924 3.848,4.489 5.13,7.215 -2.404,-1.604 -7.375,-3.369 -9.138,-4.009 -3.206,-1.282 -9.94,-1.282 -13.15,0 0.6408,1.283 1.924,1.924 2.885,2.726 -1.602,3.206 -4.969,1.284 -6.893,0.6413 -1.765,1.283 -4.81,1.283 -5.612,0.6423 0,0 0,-0.8032 0.9612,-1.604 0.6423,-0.8018 -1.924,-1.123 -2.725,-2.405 0,-1.121 1.443,0 2.084,-1.282 -1.604,-3.207 -8.497,-4.008 -7.534,-11.86 z"
           id="path861"
           inkscape:connector-curvature="0"
           style="stroke-width:0.2610155" />
        <path
           d="m 81.35,212.6 c 0.4819,0 0.6408,0.161 0.6408,0.6408 0,0.3219 -0.1589,0.6423 -0.6408,0.6423 -0.3199,0 -0.6408,-0.3204 -0.6408,-0.6423 0,-0.4799 0.3209,-0.6408 0.6408,-0.6408 m -4.489,9.297 c 0.161,-0.6408 0.8033,-2.565 1.283,-3.206 -0.4799,-0.6408 -1.122,-1.441 -1.604,-1.441 0.3204,-0.6408 1.444,-1.444 1.124,-1.924 -0.1625,-0.6408 -0.6423,-0.4814 -1.765,-1.122 0.3199,-0.8003 1.123,-1.283 1.765,-1.443 0.6408,0 0.6408,-0.9612 1.602,-1.602 1.122,-0.4814 2.404,-0.4814 3.687,-0.6408 1.764,0.3204 6.733,1.602 5.451,7.532 2.885,5.771 13.15,-2.084 16.67,-2.084 -0.6408,1.283 -1.604,2.724 -2.244,4.008 0.9612,0.6408 2.244,0 3.367,0 -1.123,3.206 -3.046,4.649 -4.649,5.932 1.602,5.128 7.695,3.206 13.15,2.563 -0.6408,1.764 -2.886,1.924 -4.01,3.366 1.924,1.924 4.01,4.489 5.292,7.214 -2.404,-1.604 -7.536,-3.366 -9.138,-4.006 -3.367,-1.283 -9.94,-1.283 -13.31,0 0.6413,1.282 2.084,1.923 3.047,2.565 -1.764,3.365 -4.969,1.442 -6.895,0.8003 -1.762,1.281 -4.808,1.281 -5.61,0.6408 0,0 0,-0.9617 0.9627,-1.604 0.6408,-0.9612 -1.924,-1.121 -2.728,-2.403 0,-1.283 1.283,0 2.085,-1.283 -1.764,-3.365 -8.498,-4.006 -7.536,-11.86 z"
           id="path863"
           inkscape:connector-curvature="0"
           style="stroke-width:0.2610155" />
        <path
           d="m 59.22,245.7 c 0.161,0 0.4814,0.1595 0.4814,0.6413 0,0.1585 -0.3199,0.4799 -0.4814,0.4799 -0.4799,0 -0.8003,-0.3209 -0.8003,-0.4799 0,-0.4819 0.3209,-0.6413 0.8003,-0.6413 m -4.809,9.296 c 0.3199,-0.6413 0.9612,-2.564 1.444,-3.205 -0.4829,-0.6443 -1.124,-1.444 -1.604,-1.444 0.1595,-0.6413 1.282,-1.442 1.121,-1.923 -0.3204,-0.6423 -0.6413,-0.4819 -1.923,-1.123 0.4814,-0.8018 1.282,-1.282 1.923,-1.442 0.6423,0 0.6423,-0.9632 1.604,-1.604 1.122,-0.4799 2.405,-0.4799 3.688,-0.6413 1.762,0.1615 6.572,1.604 5.29,7.533 2.885,5.77 13.31,-2.082 16.83,-2.082 -0.6408,1.283 -1.604,2.727 -2.244,4.006 0.9612,0.6413 2.244,0 3.206,0 -0.9613,3.207 -2.885,4.488 -4.489,5.932 1.604,5.13 7.695,3.207 13.15,2.565 -0.6428,1.763 -2.886,1.923 -4.008,3.207 1.924,2.081 4.008,4.649 5.29,7.374 -2.404,-1.603 -7.534,-3.367 -9.137,-4.008 -3.367,-1.284 -9.941,-1.284 -13.31,0 0.6413,1.284 1.924,1.924 3.045,2.565 -1.762,3.367 -4.969,1.443 -7.055,0.6413 -1.602,1.444 -4.649,1.444 -5.61,0.8018 0,0 0,-0.9612 1.121,-1.603 0.6423,-0.9612 -1.923,-1.122 -2.725,-2.405 0,-1.284 1.283,0 2.083,-1.284 -1.764,-3.366 -8.658,-4.007 -7.696,-11.86 z"
           id="path865"
           inkscape:connector-curvature="0"
           style="stroke-width:0.2610155" />
      </g>
    </g>
  </g>
</svg>
